<?xml version="1.0" encoding="utf-8"?>
<!-- Generator: Adobe Illustrator 22.1.0, SVG Export Plug-In . SVG Version: 6.00 Build 0)  -->
<svg version="1.1" xmlns="http://www.w3.org/2000/svg" xmlns:xlink="http://www.w3.org/1999/xlink" x="0px" y="0px"
	 viewBox="0 0 512 512" style="enable-background:new 0 0 512 512;" xml:space="preserve">
<style type="text/css">
	.st0{opacity:0.15;}
	.st1{opacity:0.4;}
	.st2{fill:#ECFFFB;}
	.st3{display:none;}
	.st4{display:inline;fill:#ECFFFB;}
	.st5{display:none;fill:#FACF5A;}
	.st6{opacity:0.28;fill:#49BEB7;}
	.st7{display:none;fill:#FF5959;}
	.st8{fill:#085F63;}
	.st9{display:inline;}
	.st10{fill:#FF5959;}
	.st11{fill:#FACF5A;}
</style>
<g id="shadow" class="st0">
	<g class="st1">
		<g>
			<path d="M462.1,75.8H297.4c-5.5,0-10,4.5-10,10c0,5.5,4.5,10,10,10h164.7c6.8,0,13.1,2.3,18.1,6.1l-22.3,22.3
				c-3.9-1.7-8.2-2.6-12.7-2.6c-17.9,0-32.5,14.6-32.5,32.5c0,4.5,0.9,8.8,2.6,12.7l-32.9,32.9c-4.4-2.3-9.5-3.6-14.8-3.6
				c-5.3,0-10.3,1.3-14.7,3.5l-34.6-34.6c2.4-4.5,3.7-9.7,3.7-15.1c0-17.9-14.6-32.5-32.5-32.5c-17.9,0-32.5,14.6-32.5,32.5
				c0,4.7,1,9.1,2.8,13.1l-39.1,39.1V68V39.4c0-21.7-17.7-39.4-39.4-39.4H40.4C18.7,0,1,17.7,1,39.4v244.5
				c0,21.7,17.7,39.4,39.4,39.4h14.5v53.9c0,27.5,22.4,49.9,49.9,49.9h128.8v24c-27.1,0.5-48.9,22.7-48.9,49.9c0,5.5,4.5,10,10,10
				h177.7c5.5,0,10-4.5,10-10c0-27.2-21.9-49.4-48.9-49.9v-24h128.7c27.5,0,49.9-22.4,49.9-49.9V125.8
				C512,98.2,489.6,75.8,462.1,75.8z M445.2,141.6c2.6,0,5.1,0.8,7.1,2.2c0,0,0,0,0,0.1c0.5,0.5,1,0.9,1.6,1.3
				c2.3,2.3,3.8,5.5,3.8,9c0,6.9-5.6,12.5-12.5,12.5c-6.9,0-12.5-5.6-12.5-12.5C432.7,147.3,438.3,141.6,445.2,141.6z M367.5,216.2
				c6.9,0,12.5,5.6,12.5,12.5c0,6.9-5.6,12.5-12.5,12.5c-6.9,0-12.5-5.6-12.5-12.5C355,221.8,360.6,216.2,367.5,216.2z M289.4,137.6
				c6.9,0,12.5,5.6,12.5,12.5c0,6.9-5.6,12.5-12.5,12.5s-12.5-5.6-12.5-12.5C276.9,143.2,282.5,137.6,289.4,137.6z M21,39.4
				C21,28.7,29.7,20,40.4,20h140.7c10.7,0,19.5,8.7,19.5,19.5V58H21V39.4z M21,78h179.6v148.4c0,0,0,0,0,0v23.1H21V78z M40.4,303.4
				c-10.7,0-19.5-8.7-19.5-19.5v-14.5h179.6v14.5c0,10.7-8.7,19.5-19.5,19.5H40.4z M360.6,491H206.3c4.1-11.6,15.2-20,28.2-20h9
				h79.8h9C345.4,471.1,356.5,479.4,360.6,491z M253.5,451.1v-24h59.9v24H253.5z M492,339.3h-36.9v-83.8c0-5.5-4.5-10-10-10
				c-5.5,0-10,4.5-10,10v83.8h-57.9v-52.9c0-5.5-4.5-10-10-10c-5.5,0-10,4.5-10,10v52.9h-57.9V235.5c0-5.5-4.5-10-10-10
				c-5.5,0-10,4.5-10,10v103.8h-68.9c-5.5,0-10,4.5-10,10c0,5.5,4.5,10,10,10H492v18c0,16.5-13.4,29.9-29.9,29.9H323.4h-79.8H104.8
				c-16.5,0-29.9-13.4-29.9-29.9v-53.9h106.3c21.7,0,39.4-17.7,39.4-39.4v-24.5v-29l52.4-52.4c4.8,2.8,10.5,4.5,16.5,4.5
				c5.2,0,10.1-1.2,14.5-3.4l34.7,34.7c-2.3,4.5-3.6,9.5-3.6,14.9c0,17.9,14.6,32.5,32.5,32.5c17.9,0,32.5-14.6,32.5-32.5
				c0-5.3-1.3-10.4-3.6-14.8l31.9-31.9c4.9,3,10.7,4.7,16.8,4.7c17.9,0,32.5-14.6,32.5-32.5c0-6.2-1.7-11.9-4.7-16.8l18.3-18.3
				c0.5,2.1,0.8,4.4,0.8,6.7V339.3z"/>
		</g>
	</g>
	<g>
		<g>
			<path d="M135.5,28.9H86.1c-5.5,0-10,4.5-10,10s4.5,10,10,10h49.4c5.5,0,10-4.5,10-10S141,28.9,135.5,28.9z"/>
		</g>
	</g>
	<g>
		<g>
			<path d="M110.9,276.5h-0.1c-5.5,0-10,4.5-10,10s4.5,10,10,10h0.1c5.5,0,10-4.5,10-10S116.4,276.5,110.9,276.5z"/>
		</g>
	</g>
	<g>
		<g>
			<path d="M110.8,97.8c-5.5,0-10,4.5-10,10v5c-23.9,4.7-41.9,25.7-41.9,50.9c0,28.6,23.3,51.9,51.9,51.9
				c25.2,0,46.3-18.1,50.9-41.9h5c5.5,0,10-4.5,10-10C176.7,127.4,147.1,97.8,110.8,97.8z M110.8,195.7c-17.6,0-31.9-14.3-31.9-31.9
				c0-14.1,9.2-26.1,22-30.3v30.3c0,5.5,4.5,10,10,10h30.3C136.9,186.5,124.9,195.7,110.8,195.7z M120.8,153.8v-34.9
				c17.4,3.9,31,17.5,34.9,34.9H120.8z"/>
		</g>
	</g>
	<g>
		<g>
			<path d="M290.5,374.2c-1.9-1.9-4.4-2.9-7.1-2.9s-5.2,1.1-7.1,2.9c-1.9,1.9-2.9,4.4-2.9,7.1s1.1,5.2,2.9,7.1
				c1.9,1.9,4.4,2.9,7.1,2.9s5.2-1.1,7.1-2.9c1.9-1.9,2.9-4.4,2.9-7.1S292.4,376.1,290.5,374.2z"/>
		</g>
	</g>
	<g>
		<g>
			<path d="M452.2,208.5c-1.9-1.9-4.4-2.9-7.1-2.9s-5.2,1.1-7.1,2.9c-1.9,1.9-2.9,4.4-2.9,7.1s1.1,5.2,2.9,7.1
				c1.9,1.9,4.4,2.9,7.1,2.9s5.2-1.1,7.1-2.9c1.9-1.9,2.9-4.4,2.9-7.1S454,210.4,452.2,208.5z"/>
		</g>
	</g>
</g>
<g id="inside">
	<g id="pc">
		<path class="st2" d="M109.3,403.1h345.4c15.5,0,28.1-12.6,28.1-28.1V131.6c0-15.5-12.6-28.1-28.1-28.1H109.3
			c-15.5,0-28.1,12.6-28.1,28.1v243.3C81.1,390.5,93.7,403.1,109.3,403.1z"/>
		<g id="Layer_6" class="st3">
			<rect x="253.2" y="422.3" class="st4" width="57.7" height="23.1"/>
			<rect x="207.7" y="464.6" class="st4" width="148.6" height="18"/>
		</g>
	</g>
	<g id="mobile">
		<path class="st2" d="M183.3,303.1H48.1c-10.4,0-18.9-8.5-18.9-18.9V47.8c0-10.4,8.5-18.9,18.9-18.9h135.2
			c10.4,0,18.9,8.5,18.9,18.9v236.4C202.2,294.7,193.7,303.1,183.3,303.1z"/>
	</g>
</g>
<g id="Capa_1">
	<g>
		<g>
			<path class="st5" d="M271.9,182.5c4.7,2.7,10.1,4.3,15.8,4.3c5,0,9.8-1.2,14-3.3l33.4,33.4c-2.2,4.3-3.5,9.2-3.5,14.3
				c0,17.3,14,31.3,31.3,31.3c17.3,0,31.3-14,31.3-31.3c0-5.1-1.3-10-3.5-14.3l30.8-30.8c4.7,2.9,10.3,4.5,16.2,4.5
				c17.3,0,31.3-14,31.3-31.3c0-5.9-1.7-11.5-4.5-16.2l15.2-15.2c-2-6.5-5.8-12-10.4-16.8l-19.4,19.4c-3.8-1.6-7.9-2.5-12.2-2.5
				c-17.3,0-31.3,14-31.3,31.3c0,4.3,0.9,8.5,2.5,12.2l-31.7,31.7c-4.3-2.2-9.1-3.5-14.3-3.5c-5.1,0-9.9,1.2-14.2,3.4l-33.3-33.3
				c2.3-4.3,3.6-9.3,3.6-14.5c0-17.3-14-31.3-31.3-31.3s-31.3,14-31.3,31.3c0,4.5,1,8.7,2.7,12.6L223,204.2c0,9.1,0,18.1,0,27.2
				L271.9,182.5z M437.7,147.4c2.5,0,4.9,0.8,6.8,2.1c0,0,0,0,0,0.1c0.5,0.5,1,0.9,1.5,1.2c2.3,2.2,3.7,5.3,3.7,8.7
				c0,6.7-5.4,12.1-12.1,12.1c-6.7,0-12.1-5.4-12.1-12.1C425.6,152.8,431,147.4,437.7,147.4z M362.9,219.2c6.7,0,12.1,5.4,12.1,12.1
				c0,6.7-5.4,12.1-12.1,12.1c-6.7,0-12.1-5.4-12.1-12.1C350.8,224.6,356.2,219.2,362.9,219.2z M287.7,143.4
				c6.7,0,12.1,5.4,12.1,12.1c0,6.7-5.4,12.1-12.1,12.1s-12.1-5.4-12.1-12.1C275.6,148.9,281,143.4,287.7,143.4z"/>
			<path class="st6" d="M454,84H295.4c-5.3,0-9.6,4.3-9.6,9.6c0,5.3,4.3,9.6,9.6,9.6H454c6.6,0,12.6,2.2,17.4,5.9l-2.1,2.1
				c4.6,4.7,8.4,10.3,10.4,16.8l2.4-2.4c0.5,2.1,0.7,4.2,0.7,6.4v205.6H477c0,6.4,0,12.8,0,19.2h5.8v17.3
				c0,15.9-12.9,28.8-28.8,28.8H320.4h-76.9H109.9c-15.9,0-28.8-12.9-28.8-28.8v-51.9h102.3c20.9,0,38-17,38-38v-23.5V233l1.6-1.6
				c0-9.1,0-18.1,0-27.2l-1.6,1.6V76.5V49c0-20.9-17-38-38-38H48C27,11,10,28,10,49v235.4c0,20.9,17,38,38,38h13.9v51.9
				c0,26.5,21.6,48,48,48h124v23.1c-26.1,0.5-47.1,21.8-47.1,48c0,5.3,4.3,9.6,9.6,9.6h171.1c5.3,0,9.6-4.3,9.6-9.6
				c0-26.2-21-47.5-47.1-48v-23.1H454c26.5,0,48-21.6,48-48V132.1C502,105.6,480.4,84,454,84z M29.2,49c0-10.3,8.4-18.7,18.7-18.7
				h135.5c10.3,0,18.7,8.4,18.7,18.7v17.9h-173V49z M29.2,86.1h173V229c0,0,0,0,0,0v22.2h-173V86.1z M48,303.1
				c-10.3,0-18.7-8.4-18.7-18.7v-13.9h173v13.9c0,10.3-8.4,18.7-18.7,18.7H48z M253.2,422.3h57.7v23.1h-57.7V422.3z M356.3,483.8
				H207.7c4-11.2,14.7-19.2,27.2-19.2h8.7h76.9h8.7C341.6,464.6,352.3,472.6,356.3,483.8z"/>
			<path class="st7" d="M447.2,337.7V257c0-5.3-4.3-9.6-9.6-9.6c-5.3,0-9.6,4.3-9.6,9.6v80.7h-55.7v-50.9c0-5.3-4.3-9.6-9.6-9.6
				c-5.3,0-9.6,4.3-9.6,9.6v50.9h-55.7v-99.9c0-5.3-4.3-9.6-9.6-9.6c-5.3,0-9.6,4.3-9.6,9.6v99.9h-66.3c-5.3,0-9.6,4.3-9.6,9.6
				c0,5.3,4.3,9.6,9.6,9.6H477c0-6.4,0-12.8,0-19.2H447.2z"/>
		</g>
	</g>
	<g>
		<g>
			<path class="st8" d="M139.5,38.9H92c-5.3,0-9.6,4.3-9.6,9.6s4.3,9.6,9.6,9.6h47.6c5.3,0,9.6-4.3,9.6-9.6S144.8,38.9,139.5,38.9z"
				/>
		</g>
	</g>
	<g>
		<g>
			<path class="st8" d="M115.8,277.2h-0.1c-5.3,0-9.6,4.3-9.6,9.6s4.3,9.6,9.6,9.6h0.1c5.3,0,9.6-4.3,9.6-9.6
				S121.1,277.2,115.8,277.2z"/>
		</g>
	</g>
	<g class="st3">
		<g class="st9">
			<path class="st10" d="M115.7,105.2c-5.3,0-9.6,4.3-9.6,9.6v4.8c-23,4.5-40.4,24.8-40.4,49c0,27.6,22.4,50,50,50
				c24.3,0,44.5-17.4,49-40.4h4.8c5.3,0,9.6-4.3,9.6-9.6C179.2,133.7,150.7,105.2,115.7,105.2z M115.7,199.4
				c-17,0-30.8-13.8-30.8-30.8c0-13.6,8.9-25.2,21.1-29.2v29.2c0,5.3,4.3,9.6,9.6,9.6h29.2C140.9,190.5,129.3,199.4,115.7,199.4z
				 M125.3,159v-33.6c16.7,3.7,29.9,16.9,33.6,33.6H125.3z"/>
		</g>
	</g>
	<g>
		<g>
			<path class="st8" d="M193.1,354.9c-1.8-1.8-4.3-2.8-6.8-2.8s-5,1-6.8,2.8c-1.8,1.8-2.8,4.3-2.8,6.8s1,5,2.8,6.8
				c1.8,1.8,4.3,2.8,6.8,2.8s5-1,6.8-2.8c1.8-1.8,2.8-4.3,2.8-6.8S194.9,356.7,193.1,354.9z"/>
		</g>
	</g>
	<g>
		<g>
			<path class="st8" d="M324.4,152.3c-1.8-1.8-4.3-2.8-6.8-2.8c-2.5,0-5,1-6.8,2.8c-1.8,1.8-2.8,4.3-2.8,6.8s1,5,2.8,6.8
				c1.8,1.8,4.3,2.8,6.8,2.8c2.5,0,5-1,6.8-2.8c1.8-1.8,2.8-4.3,2.8-6.8S326.2,154,324.4,152.3z"/>
		</g>
	</g>
	<path class="st11" d="M241.6,191.7l-0.4,63.5c0,5.9,3.9,11,9.6,12.4l23.6,6.1l0,0l0,0l60.1,15.4l0,0l0,0l24.1,6.2l-8.1,15.5
		l-99.7-25.6c-6.8-1.7-13.8,2.4-15.5,9.2c-1.7,6.8,2.4,13.8,9.2,15.5l0,0c-3.5,2.8-6.1,6.7-7.3,11.3c-2.9,11.4,4,23,15.3,25.9
		c11.4,2.9,23-4,25.9-15.3c1.2-4.6,0.7-9.3-1-13.4l35.4,9.1c-3.5,2.8-6.1,6.7-7.3,11.3c-2.9,11.4,4,23,15.3,25.9s23-4,25.9-15.3
		c1.2-4.6,0.7-9.3-1-13.4l8.2,2.1c5.8,1.5,11.7-1.2,14.5-6.4L432.7,209l14.9,3.8c6.8,1.7,13.8-2.4,15.5-9.2
		c1.7-6.8-2.4-13.8-9.2-15.5l-24.7-6.3c-5.8-1.5-11.7,1.2-14.5,6.4l-19.6,37.5l-148.2-38c-1.3-0.3-2.6,0-3.7,0.8
		C242.3,189.2,241.7,190.4,241.6,191.7z M250.1,197.2l29.4,7.5l-3.3,25.5l-26.3-6.7L250.1,197.2z M301.7,241.2
		c0.6-2.3-0.8-4.6-3.1-5.2l-14.1-3.6l3.3-25.5l29.5,7.6l-3.2,12.4c-0.6,2.3,0.8,4.6,3.1,5.2c2.3,0.6,4.6-0.8,5.2-3.1l3.2-12.4
		l29.5,7.6l-9.4,23.9l-14.1-3.6c-2.3-0.6-4.6,0.8-5.2,3.1c-0.6,2.3,0.8,4.6,3.1,5.2l13,3.3L333,280l-22.3-5.7l3.2-12.4
		c0.6-2.3-0.8-4.6-3.1-5.2c-2.3-0.6-4.6,0.8-5.2,3.1l-3.2,12.4l-22.3-5.7l3.3-25.5l13,3.3C298.8,244.8,301.1,243.5,301.7,241.2z
		 M341.3,282.1l9.4-23.9l24.1,6.2l-12.2,23.2L341.3,282.1z M391.1,233.4L379,256.6l-25.1-6.4l9.4-23.9L391.1,233.4z M329.4,331.7
		c6.8,1.7,10.9,8.7,9.2,15.5c-1.7,6.8-8.7,10.9-15.5,9.2c-6.8-1.7-10.9-8.7-9.2-15.5C315.6,334,322.5,329.9,329.4,331.7z M261,314.1
		c6.8,1.7,10.9,8.7,9.2,15.5c-1.7,6.8-8.7,10.9-15.5,9.2c-6.8-1.7-10.9-8.7-9.2-15.5C247.2,316.5,254.2,312.4,261,314.1z M355,320.7
		l13.8-26.3c0,0,0,0,0,0l53.5-102.2c0.9-1.8,2.9-2.6,4.8-2.1l24.7,6.3c2.3,0.6,3.6,2.9,3.1,5.2c-0.6,2.3-2.9,3.6-5.2,3.1l-21.4-5.5
		L361,327.6c-0.9,1.8-2.9,2.6-4.8,2.1l-109.5-28.1c-2.3-0.6-3.6-2.9-3.1-5.2s2.9-3.6,5.2-3.1L355,320.7z M249.9,232.3l25.3,6.5
		l-3.3,25.5l-19-4.9c-1.9-0.5-3.2-2.2-3.2-4.1L249.9,232.3z"/>
	
		<ellipse transform="matrix(0.3216 -0.9469 0.9469 0.3216 -56.3282 613.4869)" class="st8" cx="400" cy="346.1" rx="4.5" ry="26.9"/>
	<ellipse transform="matrix(0.3216 -0.9469 0.9469 0.3216 -47.068 604.022)" class="st8" cx="398" cy="334.9" rx="3.2" ry="19.3"/>
	
		<ellipse transform="matrix(0.3216 -0.9469 0.9469 0.3216 -38.3066 597.7021)" class="st8" cx="398" cy="325.6" rx="2.3" ry="13.9"/>
	<g>
		<g>
			<g>
				<path class="st10" d="M170.9,182.4l-7.1-15.6c0.8-1.3,1.3-2.8,1.3-4.5c0-2.2-0.8-4.1-2.2-5.6c1.3-1.5,2.2-3.5,2.2-5.6
					c0-2.2-0.8-4.1-2.2-5.6c1.3-1.5,2.2-3.5,2.2-5.6c0-2.2-0.8-4.1-2.2-5.6c1.3-1.5,2.2-3.5,2.2-5.6c0-4.7-3.8-8.4-8.4-8.4h-11.3
					c-4.1,0-7.5,2.9-8.3,6.8l-13.9-17.1c-0.5-0.7-1.3-1-2.2-1H97.8l-1.2-2.8l3.4-2c2.1-1.2,4.8-1,6.7,0.5l0.8,0.7
					c4.2,3.4,10.3,3.4,14.5,0c2.1-1.8,5.3-1.8,7.4,0l0,0c4.2,3.4,10.3,3.4,14.5,0l0.8-0.7c1.9-1.5,4.6-1.7,6.7-0.5l3.3,1.9l-3.6,8.5
					c-0.6,1.4,0.1,3.1,1.5,3.7c0.4,0.2,0.7,0.2,1.1,0.2c1.1,0,2.1-0.6,2.6-1.7l4.6-10.8c0.6-1.3,0.1-2.8-1.2-3.5l-5.4-3.2
					c-4.1-2.5-9.4-2.1-13.1,1l-0.8,0.7c-2.1,1.8-5.3,1.8-7.4,0l0,0c-4.2-3.4-10.3-3.4-14.5,0c-2.1,1.8-5.3,1.8-7.4,0l-0.8-0.7
					c-3.7-3-9-3.4-13.1-1l-5.5,3.2c-1.2,0.7-1.7,2.2-1.2,3.5l1.5,3.4l-17.6,5.5c-0.3-1.2-1.4-2.1-2.7-2.1H56.4
					c-1.6,0-2.8,1.3-2.8,2.8v13c0,1.6,1.3,2.8,2.8,2.8s2.8-1.3,2.8-2.8v-10.2h9.6v0.3c0,0,0,0,0,0v43.7c0,0,0,0,0,0v4.4h-9.6v-15.7
					c0-1.6-1.3-2.8-2.8-2.8s-2.8,1.3-2.8,2.8v18.5c0,1.6,1.3,2.8,2.8,2.8h15.2c1.6,0,2.8-1.3,2.8-2.8v-3.5l11.8,3.6l-5.8,12.6
					c-3.6,7.9-5.5,16.3-5.5,25c0,10.3,4.6,20,12.6,26.6c6.1,5,13.8,7.7,21.6,7.7h32.8c7.9,0,15.5-2.7,21.6-7.7
					c8-6.5,12.6-16.2,12.6-26.6v0C176.4,198.7,174.5,190.3,170.9,182.4z M145.4,125.7h11.3c1.6,0,2.8,1.3,2.8,2.8
					c0,1.6-1.3,2.8-2.8,2.8h-11.3c-1.6,0-2.8-1.3-2.8-2.8C142.6,127,143.8,125.7,145.4,125.7z M145.4,137h11.3
					c1.6,0,2.8,1.3,2.8,2.8c0,1.6-1.3,2.8-2.8,2.8h-11.3c-1.6,0-2.8-1.3-2.8-2.8S143.8,137,145.4,137z M145.4,148.3h11.3
					c1.6,0,2.8,1.3,2.8,2.8c0,1.6-1.3,2.8-2.8,2.8h-11.3c-1.6,0-2.8-1.3-2.8-2.8S143.8,148.3,145.4,148.3z M145.4,159.5h11.3
					c1.6,0,2.8,1.3,2.8,2.8c0,1.6-1.3,2.8-2.8,2.8h-11.3c-1.6,0-2.8-1.3-2.8-2.8C142.6,160.8,143.8,159.5,145.4,159.5z M160.2,229.6
					c-5.1,4.1-11.5,6.4-18.1,6.4h-32.8c-6.6,0-13-2.3-18.1-6.4c-6.7-5.5-10.5-13.5-10.5-22.2c0-7.9,1.7-15.5,5-22.7l22.6-49.3
					c0.6-1.4,0-3.1-1.4-3.7c-1.4-0.6-3.1,0-3.7,1.4l-14.5,31.5l-14.2-4.3v-39.5l20-6.3h25.2l14.6,17.9c0.7,0.9,0.9,2,0.4,3.1
					c-0.5,1-1.5,1.6-2.6,1.6c-0.7,0-1.3-0.2-1.9-0.7l-11.8-9.9c-0.5-0.4-1.1-0.7-1.8-0.7H99.7c-1.6,0-2.8,1.3-2.8,2.8
					s1.3,2.8,2.8,2.8h15.8l11,9.3c1.5,1.3,3.5,2,5.5,2c1.9,0,3.6-0.6,5-1.6c0.2,1.7,1,3.2,2.1,4.4c-1.3,1.5-2.2,3.5-2.2,5.6
					c0,2.2,0.8,4.1,2.2,5.6c-1.3,1.5-2.2,3.5-2.2,5.6c0,4.7,3.8,8.4,8.4,8.4h11.3c0.9,0,1.8-0.1,2.6-0.4l6.5,14.3
					c3.3,7.2,4.9,14.8,4.9,22.6v0l0,0C170.7,216,166.9,224.1,160.2,229.6z"/>
			</g>
		</g>
		<g>
			<g>
				<path class="st10" d="M125.7,194.2c-3.4,0-6.1-2.4-6.1-5.3c0-2.9,2.7-5.3,6.1-5.3c3.4,0,6.1,2.4,6.1,5.3c0,1.6,1.3,2.8,2.8,2.8
					c1.6,0,2.8-1.3,2.8-2.8c0-5.1-3.8-9.4-8.9-10.6v-1.2c0-1.6-1.3-2.8-2.8-2.8s-2.8,1.3-2.8,2.8v1.2c-5.1,1.2-8.9,5.5-8.9,10.6
					c0,6,5.3,10.9,11.7,10.9c3.4,0,6.1,2.4,6.1,5.3s-2.7,5.3-6.1,5.3c-3.4,0-6.1-2.4-6.1-5.3c0-1.6-1.3-2.8-2.8-2.8
					c-1.6,0-2.8,1.3-2.8,2.8c0,5.1,3.8,9.4,8.9,10.6v0.9c0,1.6,1.3,2.8,2.8,2.8s2.8-1.3,2.8-2.8v-0.9c5.1-1.2,8.9-5.5,8.9-10.6
					C137.4,199.1,132.2,194.2,125.7,194.2z"/>
			</g>
		</g>
		<g>
			<g>
				<path class="st10" d="M58.4,137.8c-0.5-0.5-1.2-0.8-2-0.8c-0.7,0-1.5,0.3-2,0.8c-0.5,0.5-0.8,1.2-0.8,2s0.3,1.5,0.8,2
					c0.5,0.5,1.2,0.8,2,0.8c0.7,0,1.5-0.3,2-0.8c0.5-0.5,0.8-1.2,0.8-2S59,138.3,58.4,137.8z"/>
			</g>
		</g>
		<g>
			<g>
				<path class="st10" d="M160.3,204.6c-1.6,0-2.8,1.3-2.8,2.8c0,4.7-2.1,9-5.7,11.9c-2.2,1.8-4.8,2.9-7.5,3.3
					c-1.5,0.2-2.6,1.6-2.4,3.2c0.2,1.4,1.4,2.4,2.8,2.4c0.1,0,0.3,0,0.4,0c3.8-0.5,7.3-2.1,10.3-4.5c4.9-4,7.7-10,7.7-16.3
					C163.1,205.8,161.9,204.6,160.3,204.6z"/>
			</g>
		</g>
		<g>
			<g>
				<path class="st10" d="M135.5,223.6c-0.5-0.5-1.2-0.8-2-0.8c-0.7,0-1.5,0.3-2,0.8c-0.5,0.5-0.8,1.2-0.8,2c0,0.7,0.3,1.5,0.8,2
					c0.5,0.5,1.2,0.8,2,0.8c0.7,0,1.5-0.3,2-0.8c0.5-0.5,0.8-1.2,0.8-2C136.3,224.9,136,224.2,135.5,223.6z"/>
			</g>
		</g>
	</g>
</g>
</svg>
